<svg width="19" height="19" viewBox="0 0 19 19" fill="none" xmlns="http://www.w3.org/2000/svg">
<path d="M11.3184 9.5C11.3184 10.5043 10.5043 11.3184 9.5 11.3184C8.49573 11.3184 7.68164 10.5043 7.68164 9.5C7.68164 8.49573 8.49573 7.68164 9.5 7.68164C10.5043 7.68164 11.3184 8.49573 11.3184 9.5Z" fill="#545D6D"/>
<path d="M13.7525 6.28274C13.6651 6.04588 13.5256 5.83148 13.3444 5.6555C13.1684 5.4743 12.9542 5.33485 12.7172 5.24744C12.525 5.17279 12.2362 5.08393 11.7044 5.05972C11.129 5.03349 10.9565 5.02783 9.49997 5.02783C8.04328 5.02783 7.87078 5.03334 7.29559 5.05958C6.76373 5.08393 6.47483 5.17279 6.28276 5.24744C6.04575 5.33485 5.83136 5.4743 5.65553 5.6555C5.47433 5.83148 5.33488 6.04573 5.24732 6.28274C5.17267 6.47495 5.08381 6.76386 5.0596 7.29571C5.03336 7.8709 5.02771 8.0434 5.02771 9.50009C5.02771 10.9566 5.03336 11.1291 5.0596 11.7045C5.08381 12.2363 5.17267 12.5251 5.24732 12.7173C5.33488 12.9543 5.47418 13.1686 5.65538 13.3445C5.83136 13.5257 6.04561 13.6652 6.28262 13.7526C6.47483 13.8274 6.76373 13.9163 7.29559 13.9405C7.87078 13.9667 8.04314 13.9722 9.49982 13.9722C10.9567 13.9722 11.1292 13.9667 11.7042 13.9405C12.2361 13.9163 12.525 13.8274 12.7172 13.7526C13.1929 13.5691 13.569 13.1931 13.7525 12.7173C13.8271 12.5251 13.916 12.2363 13.9403 11.7045C13.9666 11.1291 13.9721 10.9566 13.9721 9.50009C13.9721 8.0434 13.9666 7.8709 13.9403 7.29571C13.9161 6.76386 13.8273 6.47495 13.7525 6.28274ZM9.49997 12.3011C7.95283 12.3011 6.69865 11.0471 6.69865 9.49995C6.69865 7.9528 7.95283 6.69877 9.49997 6.69877C11.047 6.69877 12.3011 7.9528 12.3011 9.49995C12.3011 11.0471 11.047 12.3011 9.49997 12.3011ZM12.4119 7.24265C12.0504 7.24265 11.7573 6.94955 11.7573 6.58802C11.7573 6.22649 12.0504 5.93339 12.4119 5.93339C12.7734 5.93339 13.0665 6.22649 13.0665 6.58802C13.0664 6.94955 12.7734 7.24265 12.4119 7.24265Z" fill="#545D6D"/>
<path d="M9.5 0C4.2541 0 0 4.2541 0 9.5C0 14.7459 4.2541 19 9.5 19C14.7459 19 19 14.7459 19 9.5C19 4.2541 14.7459 0 9.5 0ZM14.9222 11.749C14.8958 12.3297 14.8035 12.7262 14.6686 13.0732C14.3852 13.806 13.806 14.3852 13.0732 14.6686C12.7263 14.8035 12.3297 14.8956 11.7492 14.9222C11.1675 14.9487 10.9816 14.9551 9.50014 14.9551C8.01852 14.9551 7.83283 14.9487 7.25097 14.9222C6.67041 14.8956 6.2738 14.8035 5.92692 14.6686C5.56278 14.5317 5.23315 14.317 4.96062 14.0394C4.68317 13.767 4.46849 13.4372 4.3315 13.0732C4.19669 12.7263 4.10435 12.3297 4.07797 11.7492C4.05116 11.1673 4.04492 10.9815 4.04492 9.5C4.04492 8.01852 4.05116 7.83269 4.07783 7.25097C4.10421 6.67027 4.1964 6.2738 4.33121 5.92677C4.4682 5.56278 4.68303 5.233 4.96062 4.96062C5.233 4.68303 5.56278 4.46835 5.92677 4.33136C6.2738 4.19655 6.67027 4.10435 7.25097 4.07783C7.83269 4.0513 8.01852 4.04492 9.5 4.04492C10.9815 4.04492 11.1673 4.0513 11.749 4.07797C12.3297 4.10435 12.7262 4.19655 13.0732 4.33121C13.4372 4.4682 13.767 4.68303 14.0395 4.96062C14.317 5.23315 14.5318 5.56278 14.6686 5.92677C14.8036 6.2738 14.8958 6.67027 14.9223 7.25097C14.9488 7.83269 14.9551 8.01852 14.9551 9.5C14.9551 10.9815 14.9488 11.1673 14.9222 11.749Z" fill="#545D6D"/>
</svg>
