<svg width="22" height="16" viewBox="0 0 22 16" fill="none" xmlns="http://www.w3.org/2000/svg">
<path d="M1 9C0.447715 9 4.82823e-08 8.55228 0 8C-4.82823e-08 7.44772 0.447715 7 1 7L1 9ZM21.7071 7.29289C22.0976 7.68342 22.0976 8.31658 21.7071 8.7071L15.3431 15.0711C14.9526 15.4616 14.3195 15.4616 13.9289 15.0711C13.5384 14.6805 13.5384 14.0474 13.9289 13.6569L19.5858 8L13.9289 2.34314C13.5384 1.95262 13.5384 1.31946 13.9289 0.928931C14.3195 0.538407 14.9526 0.538407 15.3431 0.928931L21.7071 7.29289ZM1 7L21 7L21 9L1 9L1 7Z" fill="#545D6D"/>
</svg>
