<svg width="21" height="21" viewBox="0 0 21 21" fill="none" xmlns="http://www.w3.org/2000/svg">
<g clip-path="url(#clip0)">
<path d="M20.8212 4.04339C20.6599 3.83561 20.4117 3.71409 20.1486 3.71409H5.55285L4.97745 2.15266C4.85412 1.81802 4.53526 1.5957 4.1786 1.5957H0.851351C0.381178 1.5957 0 1.97688 0 2.44705C0 2.91723 0.381178 3.29841 0.851351 3.29841H3.58504L8.43116 16.4492C8.55449 16.7839 8.87335 17.0062 9.23001 17.0062H17.62C18.0901 17.0062 18.4713 16.625 18.4713 16.1548C18.4713 15.6847 18.0901 15.3035 17.62 15.3035H9.82357L9.05327 13.2132H18.1525C18.5414 13.2132 18.8808 12.9497 18.9772 12.573L20.9734 4.77658C21.0387 4.5218 20.9824 4.25112 20.8212 4.04339ZM14.895 8.69172L13.4309 10.1558C13.2701 10.3165 13.0563 10.4051 12.829 10.4051C12.6015 10.4051 12.3877 10.3165 12.2269 10.1557L10.7631 8.69172C10.6022 8.53092 10.5137 8.31712 10.5137 8.08975C10.5137 7.86233 10.6022 7.64858 10.7631 7.48773C10.924 7.32694 11.1378 7.2384 11.3651 7.2384C11.5925 7.2384 11.8063 7.32694 11.967 7.48779L11.9777 7.49835V6.12285C11.9777 5.65341 12.3596 5.2715 12.829 5.2715C13.2984 5.2715 13.6804 5.65341 13.6804 6.12285V7.49829L13.691 7.48768C13.8519 7.32689 14.0656 7.23835 14.293 7.23835C14.5204 7.23835 14.7341 7.32689 14.895 7.48768C15.2269 7.81965 15.2269 8.3598 14.895 8.69172Z" fill="#545D6D"/>
<path d="M10.3002 17.2083C9.69366 17.2083 9.20215 17.6997 9.20215 18.3062C9.20215 18.9127 9.69366 19.4041 10.3002 19.4041C10.9067 19.4041 11.3983 18.9126 11.3983 18.3062C11.3983 17.6997 10.9068 17.2083 10.3002 17.2083Z" fill="#545D6D"/>
<path d="M16.0231 17.2083C15.4166 17.2083 14.925 17.6997 14.925 18.3062C14.925 18.9127 15.4166 19.4041 16.0231 19.4041C16.6297 19.4041 17.1209 18.9126 17.1209 18.3062C17.1209 17.6997 16.6297 17.2083 16.0231 17.2083Z" fill="#545D6D"/>
</g>
<defs>
<clipPath id="clip0">
<rect width="21" height="21" fill="white"/>
</clipPath>
</defs>
</svg>
